# xmcd
#
# Track frame offsets: 
#        150
#        15975
#        35550
#        54725
#        71437
#        94350
#        110725
#        124450
#        142225
#        159850
#        180125
#        200437
#        216862
#        230775
#        247250
#        266087
#        286900
#        305337
#        321350
#
# Disc length: 4564 seconds
#
# Revision: 21
# Processed by: cddbd v1.5.2PL0 Copyright (c) Steve Scherf et al.
# Submitted via: ExactAudioCopy v0.99pb5
#
DISCID=2411d213
DTITLE=Skladanka - Kuschelrock 08 CD1
DYEAR=0
DGENRE=Pop
TTITLE0=Mariah Carey - Without You
TTITLE1=Joshua Kadison - Jessie
TTITLE2=Bruce Springsteen - Human Touch
TTITLE3=The Police - Every Breath You Take
TTITLE4=Duran Duran - Ordinary World
TTITLE5=Haddaway - I Miss You
TTITLE6=Enigma - Return To Innocence
TTITLE7=Beautiful World - In The Beginning
TTITLE8=Pretenders - I'll Stand By You
TTITLE9=Guns N' Roses - Don't Cry
TTITLE10=Aerosmith - Cryin'
TTITLE11=Air Supply - Making Love (Out Of Nothing At All)
TTITLE12=Faith No More - I'm Easy
TTITLE13=Peter Cetera and Amy Grant - The Next Time I Fall
TTITLE14=Celine Dion - Power Of Love
TTITLE15=George Michael - Praying For Time
TTITLE16=Cher - Just Like Jesse James
TTITLE17=The Heights - How Do You Talk To An Angel
TTITLE18=Eros Ramazotti - Un Altra Te
EXTD=
EXTT0=
EXTT1=
EXTT2=
EXTT3=
EXTT4=
EXTT5=
EXTT6=
EXTT7=
EXTT8=
EXTT9=
EXTT10=
EXTT11=
EXTT12=
EXTT13=
EXTT14=
EXTT15=
EXTT16=
EXTT17=
EXTT18=
PLAYORDER=
